<svg xmlns="http://www.w3.org/2000/svg" width="1400" height="1200"><rect width="1400" height="1200" x="0" y="0" fill="#ffffff" id="backgorund"/><g transform="translate(600,600)" id="viz"><path fill="#cccccc" display="" d="M1.999984678767373,-389.3281963918477A389.3333333333333,389.3333333333333,0,0,1,110.01968005815512,-373.46501100417106L54.62490121925122,-188.92828783579452A196.66666666666666,196.66666666666666,0,0,0,1.9999846787673727,-196.6564970680157Z"><title>Other</title></path><path fill="#cccccc" display="" d="M113.85076288248182,-372.314985241692A389.3333333333333,389.3333333333333,0,0,1,383.4669560881508,67.33155302629396L193.87205656764317,33.03639599003415A196.66666666666666,196.66666666666666,0,0,0,58.455984043577935,-187.77826207331543Z"><title>Trans women</title></path><path fill="#cccccc" display="" d="M382.754969959735,71.26764634507596A389.3333333333333,389.3333333333333,0,0,1,-287.2933816146195,262.760265879149L-144.4526988083913,133.45859127366046A196.66666666666666,196.66666666666666,0,0,0,193.1600704392273,36.97248930881616Z"><title>Trans men</title></path><path fill="#cccccc" display="" d="M-289.97775476394526,259.79481554970573A389.3333333333333,389.3333333333333,0,0,1,-1.9999846787675934,-389.32819639184765L-1.9999846787673965,-196.6564970680157A196.66666666666666,196.66666666666666,0,0,0,-147.13707195771715,130.49314094421723Z"><title>Non-binary</title></path><path fill="#2ca02c" display="" d="M1.999984678767404,-585.9965870730688A586,586,0,0,1,29.059367473957334,-585.2790387174425L18.848365623297937,-392.88147096095224A393.3333333333333,393.3333333333333,0,0,0,1.9999846787674267,-393.3282486326094Z"><title>never_n</title></path><path fill="#1f77b4" display="" d="M33.05371538664253,-585.0670490628735A586,586,0,0,1,36.814850248541354,-584.8424290363837L24.054462429155212,-392.5971140346748A393.3333333333333,393.3333333333333,0,0,0,22.8427135359832,-392.6694813063833Z"><title>half_n</title></path><path fill="#ff7f0e" display="" d="M40.80603725602202,-584.5775118181165A586,586,0,0,1,166.56354220616407,-561.8296774003092L111.16972965027826,-377.29617321223276A393.3333333333333,393.3333333333333,0,0,0,28.045649436635937,-392.3321968164076Z"><title>most_n</title></path><path fill="#2ca02c" display="" d="M170.3946250304908,-560.67965163783A586,586,0,0,1,438.29147735807845,-388.9686116838645L293.7519356418758,-261.5739119594352A393.3333333333333,393.3333333333333,0,0,0,115.00081247460506,-376.14614744975364Z"><title>never_n</title></path><path fill="#1f77b4" display="" d="M440.93630680610704,-385.96783977449553A586,586,0,0,1,517.8049586852069,-274.3611210813427L347.25128879764264,-184.73671410817957A393.3333333333333,393.3333333333333,0,0,0,296.3967650899043,-258.57314005006623Z"><title>half_n</title></path><path fill="#ff7f0e" display="" d="M519.6656426174071,-270.8202722896447A586,586,0,0,1,576.994723274112,102.33811271384167L387.4031309665866,68.04355390774981A393.3333333333333,393.3333333333333,0,0,0,349.1119727298429,-181.19586531648162Z"><title>most_n</title></path><path fill="#2ca02c" display="" d="M576.282737145696,106.2742060326237A586,586,0,0,1,199.86995625151377,550.8611445618741L134.77411923540603,369.5227298765688A393.3333333333333,393.3333333333333,0,0,0,386.6911448381707,71.97964722653182Z"><title>never_n</title></path><path fill="#1f77b4" display="" d="M196.10520638157445,552.2125931469149A586,586,0,0,1,-29.05936747395739,585.2790387174424L-18.848365623297976,392.88147096095224A393.3333333333333,393.3333333333333,0,0,0,131.00936936546663,370.8741784616096Z"><title>half_n</title></path><path fill="#ff7f0e" display="" d="M-33.05371538664259,585.0670490628735A586,586,0,0,1,-433.09708454502095,394.7441137732176L-290.25889339105663,265.4446946512782A393.3333333333333,393.3333333333333,0,0,0,-22.84271353598324,392.6694813063833Z"><title>most_n</title></path><path fill="#2ca02c" display="" d="M-435.781457694347,391.7786634437741A586,586,0,0,1,-498.49717842460024,308.0528576441261L-334.25378453167303,207.32949292699533A393.3333333333333,393.3333333333333,0,0,0,-292.9432665403824,262.479244321835Z"><title>never_n</title></path><path fill="#1f77b4" display="" d="M-500.5882867806359,304.64301590226523A586,586,0,0,1,-546.7784037339645,210.78277256487928L-366.77008190255526,142.09439866618249A393.3333333333333,393.3333333333333,0,0,0,-336.34489288770845,203.91965118513474Z"><title>half_n</title></path><path fill="#ff7f0e" display="" d="M-548.204436641279,207.0456366282996A586,586,0,0,1,-1.9999846787673459,-585.9965870730688L-1.9999846787673874,-393.3282486326094A393.3333333333333,393.3333333333333,0,0,0,-368.1961148098696,138.35726272960318Z"><title>most_n</title></path></g><g id="labels" transform="translate(600,600)" text-anchor="middle"><text transform="rotate(90) translate(98.33333333333333,0) rotate(180)"><tspan x="0" y="4" style="font-family: Arial, sans-serif; font-size: 10px; fill: black; font-weight: normal;"/></text><text transform="rotate(-81.64556962025316) translate(295,0) rotate(0)"><tspan x="0" y="4" style="font-family: Arial, sans-serif; font-size: 10px; fill: black; font-weight: normal;">Other</tspan></text><text transform="rotate(-31.518987341772146) translate(295,0) rotate(0)"><tspan x="0" y="4" style="font-family: Arial, sans-serif; font-size: 10px; fill: black; font-weight: normal;">Trans women</tspan></text><text transform="rotate(74.05063291139243) translate(295,0) rotate(0)"><tspan x="0" y="4" style="font-family: Arial, sans-serif; font-size: 10px; fill: black; font-weight: normal;">Trans men</tspan></text><text transform="rotate(203.92405063291136) translate(295,0) rotate(180)"><tspan x="0" y="4" style="font-family: Arial, sans-serif; font-size: 10px; fill: black; font-weight: normal;">Non-binary</tspan></text><text transform="rotate(-88.48101265822785) translate(491.66666666666663,0) rotate(0)"><tspan x="0" y="4" style="font-family: Arial, sans-serif; font-size: 10px; fill: black; font-weight: bold;">4</tspan></text><text transform="rotate(-86.58227848101265) translate(491.66666666666663,0) rotate(0)"><tspan x="0" y="4" style="font-family: Arial, sans-serif; font-size: 10px; fill: black; font-weight: bold;">1</tspan></text><text transform="rotate(-79.74683544303798) translate(491.66666666666663,0) rotate(0)"><tspan x="0" y="4" style="font-family: Arial, sans-serif; font-size: 10px; fill: black; font-weight: bold;">17</tspan></text><text transform="rotate(-57.34177215189873) translate(491.66666666666663,0) rotate(0)"><tspan x="0" y="4" style="font-family: Arial, sans-serif; font-size: 10px; fill: black; font-weight: bold;">42</tspan></text><text transform="rotate(-34.55696202531645) translate(491.66666666666663,0) rotate(0)"><tspan x="0" y="4" style="font-family: Arial, sans-serif; font-size: 10px; fill: black; font-weight: bold;">18</tspan></text><text transform="rotate(-8.73417721518986) translate(491.66666666666663,0) rotate(0)"><tspan x="0" y="4" style="font-family: Arial, sans-serif; font-size: 10px; fill: black; font-weight: bold;">50</tspan></text><text transform="rotate(40.25316455696202) translate(491.66666666666663,0) rotate(0)"><tspan x="0" y="4" style="font-family: Arial, sans-serif; font-size: 10px; fill: black; font-weight: bold;">79</tspan></text><text transform="rotate(81.64556962025318) translate(491.66666666666663,0) rotate(0)"><tspan x="0" y="4" style="font-family: Arial, sans-serif; font-size: 10px; fill: black; font-weight: bold;">30</tspan></text><text transform="rotate(115.44303797468356) translate(491.66666666666663,0) rotate(180)"><tspan x="0" y="4" style="font-family: Arial, sans-serif; font-size: 10px; fill: black; font-weight: bold;">59</tspan></text><text transform="rotate(143.16455696202533) translate(491.66666666666663,0) rotate(180)"><tspan x="0" y="4" style="font-family: Arial, sans-serif; font-size: 10px; fill: black; font-weight: bold;">14</tspan></text><text transform="rotate(153.79746835443038) translate(491.66666666666663,0) rotate(180)"><tspan x="0" y="4" style="font-family: Arial, sans-serif; font-size: 10px; fill: black; font-weight: bold;">14</tspan></text><text transform="rotate(214.55696202531647) translate(491.66666666666663,0) rotate(180)"><tspan x="0" y="4" style="font-family: Arial, sans-serif; font-size: 10px; fill: black; font-weight: bold;">146</tspan></text></g><g id="legend" transform="translate(1200,10)"><g transform="translate(5,0)"><g class="legendColor" transform="translate(0,0)"><g class="legendCells" transform="translate(0,16.953125)"><g class="cell" transform="translate(0, 0)"><rect class="swatch" height="15" width="15" style="fill: rgb(31, 119, 180);"/><text class="label" transform="translate( 20, 12.5)" font-family="&quot;Arial&quot;, sans-serif" font-size="10px"><tspan x="0" dy="0em">half_n</tspan></text></g><g class="cell" transform="translate(0, 21.953125)"><rect class="swatch" height="15" width="15" style="fill: rgb(255, 127, 14);"/><text class="label" transform="translate( 20, 12.5)" font-family="&quot;Arial&quot;, sans-serif" font-size="10px"><tspan x="0" dy="0em">most_n</tspan></text></g><g class="cell" transform="translate(0, 43.90625)"><rect class="swatch" height="15" width="15" style="fill: rgb(44, 160, 44);"/><text class="label" transform="translate( 20, 12.5)" font-family="&quot;Arial&quot;, sans-serif" font-size="10px"><tspan x="0" dy="0em">never_n</tspan></text></g></g><text class="legendTitle" font-family="&quot;Arial&quot;, sans-serif" font-size="12px" font-weight="bold"><tspan x="0" dy="0em">name</tspan></text></g></g></g></svg>